<?xml version="1.0" encoding="utf-8"?>
<!-- Generator: Adobe Illustrator 26.0.3, SVG Export Plug-In . SVG Version: 6.00 Build 0)  -->
<svg version="1.0" id="Layer_1" xmlns="http://www.w3.org/2000/svg" xmlns:xlink="http://www.w3.org/1999/xlink" x="0px" y="0px"
	 viewBox="0 0 252 181" style="enable-background:new 0 0 252 181;" xml:space="preserve">
<style type="text/css">
	.st0{fill:#97C93F;}
	.st1{fill:#303030;}
	.st2{fill:none;}
</style>
<path class="st0" d="M77.1,110.1c-2.1,2-4.1,4.1-6.2,6.1c-0.9,1-2.1,1.8-3.4,2.3c-3.6,1.3-6.9,0.8-9.7-1.9
	c-6.7-6.5-13.2-13.1-19.8-19.7c-3.5-3.5-3.5-9.3,0-12.8c0,0,0,0,0,0c6.6-6.6,13.1-13.1,19.7-19.7c3.5-3.5,9.2-3.5,12.8,0
	c4.4,4.4,8.8,8.8,13.2,13.2c3.5,3.5,3.5,9.1,0.1,12.6c-4,4.2-8.2,8.3-12.3,12.4c-0.2,0.2-0.3,0.3-0.4,0.5c-0.4,0.2-0.4,0.4,0,0.8
	c1.9,1.9,3.8,3.8,5.7,5.7C77,109.7,77.2,109.8,77.1,110.1z M77.1,84.1c0-0.2-0.2-0.3-0.4-0.5L64.6,71.4c-0.3-0.3-0.5-0.4-0.8,0
	c-6.2,6.3-12.5,12.5-18.7,18.7c-0.3,0.3-0.3,0.5,0,0.8c6.3,6.2,12.5,12.5,18.7,18.7c0.3,0.3,0.5,0.3,0.8,0c1.9-1.9,3.8-3.8,5.7-5.7
	c0.3-0.3,0.3-0.5,0-0.8c-1.9-1.9-3.8-3.8-5.7-5.7c-0.3-0.3-0.4-0.5,0-0.9c4-4,8.1-8.1,12.1-12.1L77.1,84.1z"/>
<path class="st1" d="M98.5,90.6c0-5.4,0-10.9,0-16.3c0-0.5,0.1-0.6,0.6-0.6c4.5,0,9,0,13.5,0c2.8-0.1,5.5,0.8,7.7,2.5
	c2.6,2.1,4.1,5.2,4.2,8.5c0.4,3.7-1,7.3-3.8,9.8c-2.1,1.9-4.8,2.9-7.6,2.9c-2.7,0.1-5.5,0-8.2,0c-0.5,0-0.7,0.1-0.7,0.7
	c0,3,0,6,0,8.9c0,0.4-0.1,0.6-0.6,0.6c-1.5,0-3,0-4.5,0c-0.5,0-0.6-0.1-0.6-0.6C98.5,101.5,98.5,96,98.5,90.6z M104.1,85.5
	c0,2.1,0,4.3,0,6.4c0,0.4,0.1,0.5,0.5,0.5c2.6,0,5.2,0,7.8,0c3.6,0.1,6.6-2.8,6.7-6.4c0-0.1,0-0.3,0-0.4c0.1-3.8-2.4-7.2-6.9-7.1
	c-2.5,0.1-5,0-7.5,0c-0.5,0-0.6,0.2-0.6,0.6C104.1,81.2,104.1,83.4,104.1,85.5z"/>
<path class="st1" d="M158.3,103.1c-0.4,0.5-0.6,1-1,1.4c-1.7,2.3-4.5,3.5-7.3,3.3c-5.3-0.2-8.9-3.4-10-8.8c-0.6-2.7-0.4-5.5,0.5-8.1
	c1.4-3.6,4.5-6.2,8.3-6.8c4.5-0.9,9.2-0.3,13.4,1.6c0.3,0.1,0.3,0.4,0.3,0.6c0,4.9,0,9.7,0,14.6c0,0.4,0,0.8,0,1.2
	c0.1,1.2,0.6,1.7,1.9,1.7c0.6,0,0.6,0.2,0.6,0.7c0,0.8,0,1.7,0,2.5c0,0.2,0,0.4-0.3,0.5c-1.3,0.2-2.6,0.2-3.8,0
	c-1.6-0.3-2.7-1.7-2.7-3.3C158.3,103.8,158.3,103.4,158.3,103.1z M157.5,92.9c0-1.2,0-2.3,0-3.5c0-0.3-0.2-0.6-0.5-0.7
	c-1.9-0.7-3.9-0.9-5.9-0.7c-2.7,0.2-5,2.1-5.7,4.7c-0.6,2-0.6,4.1,0.1,6c0.9,3.2,4.2,5,7.4,4.1c0.1,0,0.2-0.1,0.3-0.1
	c2.3-0.6,3.4-2.4,4-4.5C157.5,96.5,157.6,94.7,157.5,92.9z"/>
<path class="st1" d="M195.1,103h3.3c2.7,0,5.4,0,8.1,0c0.4,0,0.5,0.1,0.5,0.5c0,1.2,0,2.4,0,3.7c0,0.3-0.1,0.4-0.4,0.4H188
	c-0.4,0-0.6-0.7-0.4-1.2c0.1-0.1,0.1-0.2,0.2-0.3c3.6-5.7,7.3-11.5,11.2-17l0.3-0.4h-0.6c-3.3,0-6.6,0-9.9,0c-0.4,0-0.6-0.1-0.5-0.5
	c0-1.1,0-2.2,0-3.3c0-0.4,0.1-0.5,0.5-0.5c5.9,0,11.8,0,17.8,0c0.5,0,0.5,0.2,0.5,0.6c0,0.2-0.1,0.4-0.3,0.6
	c-3.7,5.8-7.4,11.6-11.4,17.2L195.1,103z"/>
<path class="st1" d="M171,94.3c0-1.7,0-3.4,0-5.2c0-0.4-0.1-0.6-0.6-0.6c-1.2,0-2.5,0-3.7,0c-0.4,0-0.5,0-0.5-0.5c0-1.1,0-2.2,0-3.4
	c0-0.4,0.1-0.5,0.5-0.5c1.2,0,2.4,0,3.6,0c0.6,0,0.6-0.2,0.6-0.7c0-1.5,0-3,0-4.5c0-0.5,0.1-0.6,0.6-0.6c1.4,0,2.7,0,4.1,0
	c0.5,0,0.6,0.2,0.6,0.6c0,1.5,0,3,0,4.5c0,0.6,0.2,0.7,0.7,0.6c2.3,0,4.6,0,6.9,0c0.5,0,0.6,0.1,0.6,0.6c0,1.1,0,2.2,0,3.2
	c0,0.4-0.1,0.5-0.5,0.5c-2.4,0-4.7,0-7.1,0c-0.4,0-0.5,0.1-0.5,0.5c0,3.2,0,6.4,0,9.6c0,1,0.1,2.1,0.5,3.1c0.7,1.6,2.3,2.5,4,2.3
	c1.2-0.1,2.4-0.3,3.5-0.7c0.4-0.1,0.5-0.1,0.5,0.3c0.1,1.1,0.3,2.1,0.4,3.2c0,0.2,0.1,0.4-0.2,0.4c-2.6,0.9-5.4,1.1-8.1,0.6
	c-3.1-0.7-4.8-2.8-5.5-5.8c-0.3-1.7-0.4-3.4-0.4-5.1C171,96,171,95.2,171,94.3z"/>
<path class="st1" d="M128,87.4c0-4.4,0-8.8,0-13.2c0-0.4,0.1-0.5,0.5-0.5c1.4,0,2.8,0,4.2,0c0.4,0,0.5,0.1,0.5,0.5
	c0,8.2,0,16.4,0,24.6c0,0.9,0,1.9,0.2,2.8c0.2,1.3,1.4,2.3,2.7,2.2c0.6,0,1.2,0,1.7-0.1c0.3-0.1,0.4,0,0.4,0.3
	c0,1.1,0.1,2.2,0.2,3.4c0,0.2,0,0.3-0.3,0.4c-1.8,0.4-3.6,0.4-5.4,0.1c-2.6-0.6-3.8-2.3-4.4-4.8c-0.3-1.4-0.4-2.8-0.4-4.2
	C128,95,128,91.2,128,87.4z"/>
<path class="st1" d="M216,95.9c0,3.7,0,7.4,0,11c0,0.5-0.1,0.6-0.6,0.6c-1.4,0-2.8,0-4.2,0c-0.4,0-0.5-0.1-0.5-0.4
	c0-7.5,0-14.9,0-22.4c0-0.3,0.1-0.4,0.4-0.4c1.4,0,2.9,0,4.3,0c0.5,0,0.5,0.2,0.5,0.6C216,88.5,216,92.2,216,95.9z"/>
<path class="st1" d="M213.4,79.8c-1.7,0.1-3.1-1.2-3.2-2.9c0-0.1,0-0.2,0-0.3c-0.1-1.7,1.2-3,2.9-3.1c0.1,0,0.2,0,0.4,0
	c1.7-0.1,3.2,1.2,3.3,2.9c0.1,1.7-1.2,3.2-2.9,3.3C213.6,79.8,213.5,79.8,213.4,79.8L213.4,79.8z"/>
<rect x="29" y="56" class="st2" width="194" height="69"/>
</svg>
